<?xml version="1.0" encoding="UTF-8"?>
<svg width="100px" height="100px" viewBox="0 0 100 100" version="1.1" xmlns="http://www.w3.org/2000/svg" xmlns:xlink="http://www.w3.org/1999/xlink">
    <!-- Generator: Sketch 55.2 (78181) - https://sketchapp.com -->
    <title>Group 7</title>
    <desc>Created with Sketch.</desc>
    <g id="direction_2" stroke="none" stroke-width="1" fill="none" fill-rule="evenodd">
        <g id="Artboard" transform="translate(-8249.000000, -4216.000000)" fill="#FE840E" fill-rule="nonzero">
            <g id="Group-7" transform="translate(8249.000000, 4216.000000)">
                <path d="M95.8861638,5.42497141 C103.800573,10.6188027 98.7613204,31.5487064 93.5674891,47.2229474 C88.3427421,62.9281041 82.9634168,73.4394294 75.0180914,75.0161282 C67.1036818,76.6237426 56.5923565,69.3276462 41.2272721,74.2123209 C25.8621877,79.0969957 5.58151299,96.1624415 1.06782623,94.554827 C-3.47677619,92.9781282 7.71469372,72.6974535 11.6100672,56.3430679 C15.5054407,39.9886823 12.1356335,27.5296702 16.6493202,22.3358389 C21.1939227,17.1110919 33.6529347,19.1824413 50.3473926,14.9469955 C67.0109348,10.7115497 87.9408385,0.200224408 95.8861638,5.42497141 Z" id="Path"></path>
                <path d="M89.2427241,9.1388483 C100.720599,19.8515316 102.141669,41.3862113 97.586957,58.4026164 C93.0322447,75.4190215 82.5381876,87.8807143 71.0603126,93.4556821 C59.5824377,99.0306499 47.1207449,97.7553305 36.8817516,95.5326309 C26.6791961,93.3099313 18.6993402,90.1034139 11.593989,84.528446 C4.48863788,78.9170405 -1.74220852,70.9371846 0.444053375,65.1435905 C2.63031527,59.3499965 13.2336855,55.7426644 20.3390366,45.0664188 C27.4443878,34.3537355 31.0517199,16.6085764 43.6227258,7.60846497 C56.2301694,-1.3552088 77.7648491,-1.53739729 89.2427241,9.1388483 Z" id="Path"></path>
                <path d="M70.5740514,29.8927321 C80.8872095,35.3045873 95.5655905,41.2014673 99.1139296,50.6466864 C102.662269,60.0919055 95.0805658,73.0854636 84.7929353,80.7182217 C74.4797771,88.3254522 61.486219,90.5463551 54.0321542,85.0323894 C46.5780894,79.492896 44.6379904,66.1930065 35.3204094,58.5602483 C26.0028284,50.9530178 9.30776552,49.0129188 3.00244359,40.8185531 C-3.27735071,32.5986597 0.858123586,18.098972 10.1757046,12.6871168 C19.4932855,7.30078914 33.9929732,10.9767663 44.1784932,15.2909339 C54.3895409,19.5795739 60.2864209,24.5064044 70.5740514,29.8927321 Z" id="Path"></path>
                <path d="M69.8138727,22.6858375 C78.7386865,28.4385789 88.4430774,36.5300517 92.2603171,48.4387642 C96.0506748,60.3743586 93.9269992,76.0734287 85.0290673,85.401472 C76.1042535,94.7026334 60.4051834,97.6327681 43.1200771,99.1919223 C25.8618528,100.751077 7.0444742,100.912368 5.16273635,91.611207 C3.28099849,82.2831636 18.3349013,63.465785 18.5499571,44.8634622 C18.7650128,26.2611394 4.16810348,7.90075435 6.04984134,2.17489488 C7.93157919,-3.57784656 26.2919643,3.33081956 39.5447752,8.46527571 C52.7975861,13.5997319 60.8890588,16.959978 69.8138727,22.6858375 Z" id="Path"></path>
                <path d="M87.1285825,13.5866023 C96.131871,18.0312638 101.032395,31.0993281 99.8167612,42.9517585 C98.6011274,54.804189 91.2693354,65.4789741 82.3040355,74.2923198 C73.300747,83.067677 62.6259619,90.0195833 54.2304903,87.7782583 C45.7970302,85.5369333 39.6428836,74.1403656 29.4239612,65.3270199 C19.2430273,56.5136742 5.03530621,50.3595276 1.16047318,40.2545709 C-2.75234841,30.1876027 3.66771809,16.2458015 13.8486519,11.8011401 C24.0675743,7.35647864 38.0093755,12.4849341 51.5333026,12.9028083 C65.0572296,13.358671 78.125294,9.14194092 87.1285825,13.5866023 Z" id="Path"></path>
                <path d="M74.3018924,14.6082341 C82.2992834,20.4800137 94.2453862,26.2801862 98.3190573,37.9879419 C102.41772,49.659894 98.693935,67.2394293 90.696544,80.1645052 C82.699153,93.1253845 70.4281561,101.467608 59.3567679,99.7848419 C48.2853797,98.1020758 38.3886084,86.3585166 25.9676604,73.4334407 C13.5717044,60.4725614 -1.37342011,46.2943618 0.101098861,34.2285708 C1.57561783,22.1627798 19.4447884,12.2093973 31.8657363,6.33761766 C44.2866842,0.501641588 51.2344177,-1.21692805 56.732624,0.823873396 C62.2558222,2.90047838 66.3045014,8.77225799 74.3018924,14.6082341 Z" id="Path"></path>
                <path d="M88.8241893,23.8106908 C94.3972918,29.5126512 96.072444,38.9837042 93.6563591,46.0708866 C91.2080597,53.1258546 84.6685232,57.7647377 79.0954206,68.0089378 C73.522318,78.2531379 68.883435,94.1348695 59.7667412,98.6126803 C50.6500474,103.090491 37.0555428,96.1643809 27.0690584,85.9201807 C17.0825741,75.6759806 10.7041098,62.0814761 7.257162,45.0400237 C3.81021417,27.9985714 3.26256825,7.47795668 13.2490526,1.80821071 C23.235537,-3.89374973 43.7561517,5.22294407 58.7358783,10.7316177 C73.7478193,16.2402914 83.2188722,18.1087304 88.8241893,23.8106908 Z" id="Path"></path>
                <path d="M94.5982282,29.4809927 C98.6984051,43.7599304 95.7738034,54.9135585 94.1681397,64.4328503 C92.5338034,73.9808147 92.2184052,81.8944428 88.1182283,86.9408143 C84.0180514,92.0158585 76.1044233,94.223646 65.6102643,96.8041769 C55.1447778,99.3847079 42.0987604,102.280637 28.3359289,97.2055929 C14.5730973,92.1592213 0.0934516597,79.1132039 3.50548698,69.4792218 C6.91752229,59.8452398 28.2212386,53.623293 41.9840701,39.3443553 C55.7469017,25.0654176 61.9688484,2.70081634 70.6566358,0.234975692 C79.3444232,-2.23086496 90.4980513,15.202055 94.5982282,29.4809927 Z" id="Path"></path>
                <path d="M92.358589,0.71226237 C96.4155806,4.30412119 86.6477919,22.1342117 82.1256675,35.4421778 C77.5777024,48.7501439 78.2495609,57.5359856 74.1925693,69.3710312 C70.1614184,81.2060768 61.3755767,96.1420077 49.4113275,99.3204152 C37.4470784,102.524663 22.2785811,93.9972287 13.9320314,82.1621831 C5.58548182,70.3271375 4.03503917,55.1586402 8.29875647,44.2538602 C12.5624738,33.3490802 22.640351,26.7080175 30.9869006,23.1419994 C39.3334503,19.5759813 45.974513,19.0591671 58.2230099,13.4517328 C70.4715069,7.84429858 88.3015974,-2.85375573 92.358589,0.71226237 Z" id="Path"></path>
                <path d="M75.1102959,14.4070348 C78.710414,24.7771861 72.2573722,38.3851796 68.5214006,48.2572014 C64.7854291,58.1292233 63.7665277,64.2652735 60.1664097,74.9750587 C56.5889338,85.7074861 50.4528836,100.991006 45.3583769,99.9494626 C40.2638702,98.907919 36.2109071,81.5413118 31.705099,70.8315266 C27.2219331,60.0990992 22.3085644,56.0461361 22.0142151,51.6988237 C21.7198658,47.3515113 26.044536,42.7098497 30.5503441,32.3396983 C35.03351,21.9469047 39.6751716,5.84826352 48.7999992,1.36509763 C57.9248267,-3.11806825 71.5328201,4.01424111 75.1102959,14.4070348 Z" id="Path"></path>
                <path d="M92.1855125,15.1311631 C98.1453603,18.8884584 95.7873336,33.1661809 97.0052155,48.6876976 C98.2230975,64.2092144 103.042801,80.9486131 97.0829527,83.8767123 C91.1231048,86.8048114 74.3837061,75.9475234 58.4475913,75.1701519 C42.485564,74.3668681 27.352733,83.6435008 16.5213573,80.6894893 C5.66406933,77.7613901 -0.865850913,62.6285591 0.0929072178,48.4285738 C1.02575297,34.2285885 9.44727709,20.961449 20.3045651,17.2041536 C31.1359407,13.4468582 44.4030803,19.199407 58.1625551,18.655247 C71.9479422,18.1369994 86.2256647,11.3738677 92.1855125,15.1311631 Z" id="Path"></path>
                <path d="M75.6395091,34.1735595 C82.5074256,42.8527946 91.4130755,47.733292 96.2432585,57.4188152 C101.073441,67.1043384 101.853315,81.6452018 94.9602411,86.4250704 C88.0923247,91.204939 73.5514613,86.2238127 58.6583971,86.626328 C43.7401756,87.003686 28.4445961,92.7395283 17.0735403,87.9596598 C5.70248453,83.1797912 -1.71889038,67.8842117 0.344000273,54.6263656 C2.38173372,41.3936768 13.9037327,30.1735642 25.2496313,21.4943292 C36.6206871,12.8150941 47.8407997,6.67673654 55.8659475,9.84654413 C63.8910953,13.0163517 68.7715927,25.4943245 75.6395091,34.1735595 Z" id="Path"></path>
                <path d="M86.1238108,14.7542707 C89.3461234,18.9561662 85.5824623,29.1644524 88.3149834,42.1052597 C91.0475044,55.0460669 100.276208,70.7193952 97.053895,82.757955 C93.8315825,94.7965147 78.1582542,103.174527 66.7899355,98.8437393 C55.4473952,94.5387297 48.3840861,77.5249194 36.7064254,65.4863596 C25.0287647,53.4735784 8.68519535,46.4102693 3.70994476,34.397488 C-1.26530584,22.3589283 5.07620528,5.34511799 16.7796445,1.14322241 C28.4573052,-3.08445167 45.4711156,5.52556749 59.0821638,8.92832956 C72.6932121,12.3310916 82.9014983,10.5265966 86.1238108,14.7542707 Z" id="Path"></path>
                <path d="M75.8661579,16.7830827 C84.338349,21.5133894 88.8921517,33.9039688 93.7989623,51.2013589 C98.705773,68.4987489 104.000892,90.7382504 95.5287013,95.0802484 C87.0565103,99.4222463 64.8170088,85.9373422 50.5201864,78.0299639 C36.223364,70.1225855 29.7986191,67.8280338 25.491922,63.4507351 C21.2205256,59.1087372 19.0318763,52.6839923 12.9248386,40.1875105 C6.78250005,27.6557279 -3.24292603,9.01690757 1.02847029,4.32190169 C5.33516741,-0.408404979 23.9739877,8.84040359 39.506338,11.9468736 C55.0033875,15.0533437 67.3939669,12.0880768 75.8661579,16.7830827 Z" id="Path"></path>
                <path d="M82.1780135,22.3146783 C87.1652604,28.4568665 88.9764185,36.6202021 92.9662159,48.7733352 C96.9560134,60.9264684 103.12445,77.0693989 98.1372035,83.2378358 C93.1499566,89.4062727 77.007026,85.6002159 59.9716407,86.4926706 C42.9100068,87.411374 24.9821668,93.0023402 13.7477371,86.8339033 C2.48705864,80.6654664 -2.05396086,62.7376264 0.859641249,47.6971399 C3.77324335,32.6566533 14.1152184,20.5297689 25.3758968,14.4138293 C36.6103266,8.2716411 48.737211,8.16664643 58.8954454,10.1352965 C69.0274311,12.1301952 77.1907667,16.1987387 82.1780135,22.3146783 Z" id="Path"></path>
                <path d="M62.4290365,25.6040139 C77.0566303,30.5427929 99.4226931,37.4319177 99.9889226,44.887272 C100.555152,52.3426263 79.2900909,60.3327528 64.6624971,67.4106207 C50.0349032,74.4884887 42.0447767,80.6540982 33.3311348,81.3461564 C24.6174929,82.0382146 15.1803356,77.3196359 8.73161146,70.2417679 C2.2828873,63.1639 -1.17740371,53.7267427 0.363998652,45.8624449 C1.9368582,38.0296044 8.51141112,31.706709 14.9601353,26.7993872 C21.4088594,21.8606082 27.7317548,18.3059456 34.3063077,18.0228309 C40.9123179,17.708259 47.8014427,20.6652349 62.4290365,25.6040139 Z" id="Path"></path>
                <path d="M63.4085627,31.2128867 C67.5768198,39.2086001 71.7188615,43.3506417 76.5425049,52.3163269 C81.3661484,61.282012 86.8451782,75.0451251 82.7031365,84.8497048 C78.5348794,94.628069 64.7717663,100.421684 51.4018849,99.9760215 C38.0582191,99.5565742 25.1602159,92.897849 22.3551623,83.1194848 C19.5501088,73.3149052 26.8904358,60.416902 24.8980613,45.5265244 C22.9319023,30.6361467 11.6592573,13.7533946 14.4380954,5.75768128 C17.2431489,-2.23803207 34.125901,-1.34670664 44.6120825,4.99743313 C55.1244793,11.3677884 59.266521,23.2171734 63.4085627,31.2128867 Z" id="Path"></path>
                <path d="M82.137865,7.24677236 C87.9842745,14.1011835 87.0914731,26.7444041 86.7458725,39.0132242 C86.400272,51.3108442 86.6306723,63.2628637 80.7842628,74.6388822 C74.9378533,86.0149008 62.9858338,96.8149184 48.4418101,99.3781226 C33.9265864,101.970127 16.8193585,96.3253176 12.9313522,84.9492991 C9.04334582,73.5732805 18.374561,56.4660526 21.7153665,42.6708301 C25.0273719,28.9044077 22.3489675,18.4499906 26.2369739,11.5955794 C30.1249802,4.71236822 40.5793972,1.45796292 52.1282161,0.363561133 C63.6482349,-0.730840652 76.2914555,0.39236118 82.137865,7.24677236 Z" id="Path"></path>
            </g>
        </g>
    </g>
</svg>