<?xml version="1.0" encoding="UTF-8"?>
<svg width="100px" height="100px" viewBox="0 0 100 100" version="1.1" xmlns="http://www.w3.org/2000/svg" xmlns:xlink="http://www.w3.org/1999/xlink">
    <!-- Generator: Sketch 55.2 (78181) - https://sketchapp.com -->
    <title>Group</title>
    <desc>Created with Sketch.</desc>
    <g id="Page-1" stroke="none" stroke-width="1" fill="none" fill-rule="evenodd">
        <g id="Artboard" transform="translate(-541.000000, -204.000000)" fill="#FE840E" fill-rule="nonzero">
            <g id="Group" transform="translate(541.000000, 204.000000)">
                <path d="M85.798727,24.6143573 C94.2082443,37.0152574 98.3000393,50.9725458 95.6140144,63.6244764 C92.9279895,76.2513038 83.4139385,87.5727734 70.9628323,94.0744599 C58.5117261,100.551043 43.1235646,102.207844 30.9485918,96.5847636 C18.773619,90.9365803 9.81183486,78.0336194 6.02127631,63.373446 C2.20561473,48.6881695 3.56117871,32.2707835 12.0711082,19.8447803 C20.6061407,7.39367409 36.3206416,-1.09115232 50.5038574,0.113793438 C64.7121762,1.29363616 77.3892097,12.1883541 85.798727,24.6143573 Z" id="Path"></path>
                <path d="M83.0319828,26.5891252 C93.2992711,39.0296192 101.881216,53.2663343 99.6414838,65.8177062 C97.4239269,78.3912536 84.3846925,89.2794578 70.3697331,94.6902966 C56.3769493,100.101135 41.3862649,100.034609 29.4558089,94.1137318 C17.525353,88.192855 8.6551255,76.417628 3.75432483,61.7595771 C-1.16865142,47.1015262 -2.07784973,29.6050026 6.10493511,17.6301955 C14.2877199,5.67756396 31.5624879,-0.708999817 46.1761877,1.39767921 C60.7898874,3.5265338 72.7646945,14.1708068 83.0319828,26.5891252 Z" id="Path"></path>
                <path d="M91.981999,19.5868865 C99.0168035,31.9149803 97.091971,47.8865071 92.3257191,60.9936999 C87.5365525,74.0779779 79.9288812,84.2750073 68.6777769,91.4243851 C57.4495874,98.5508483 42.5550502,102.606745 29.6770041,98.1154695 C16.8218728,93.601279 5.93740331,80.5170009 4.24171753,67.0660881 C2.54603176,53.6151753 9.99330036,39.774713 19.6403775,26.8508377 C29.2874547,13.9040476 41.1114258,1.87384452 55.0206321,0.201073415 C68.9298383,-1.44878301 84.9471945,7.23587791 91.981999,19.5868865 Z" id="Path"></path>
                <path d="M84.2863161,20.4551711 C91.5531477,32.3520125 92.5289793,46.4496657 89.8921576,60.4227446 C87.2553359,74.3958236 81.0058607,88.2235659 69.6903659,95.0128628 C58.3748711,101.822922 41.9725942,101.573774 29.9511785,94.7844767 C17.9297629,88.0159422 10.2684462,74.7280216 9.14727794,62.1460218 C8.02610964,49.5432597 13.4243274,37.6464183 21.3140302,25.6042404 C29.203733,13.5620624 39.6056833,1.37454774 51.5648118,0.10804281 C63.5239403,-1.13769974 77.040247,8.55832978 84.2863161,20.4551711 Z" id="Path"></path>
                <path d="M90.4359346,21.5297416 C99.6047024,32.555475 102.250878,49.2217415 98.0727057,63.0329234 C93.871321,76.8441052 82.8223755,87.8002024 70.2646455,92.7443734 C57.7301275,97.6885444 43.6636129,96.6440012 30.9666104,91.1427405 C18.2696079,85.6414799 6.94211762,75.7067138 2.3461277,62.2901371 C-2.24986223,48.8735605 -0.11435176,32.0215974 8.93835567,21.0190761 C17.9910631,10.0165547 33.9609675,4.86347511 49.7683874,5.00274753 C65.5990193,5.11880788 81.2671668,10.4807961 90.4359346,21.5297416 Z" id="Path"></path>
                <path d="M95.4552759,20.2959573 C102.415454,31.353096 100.366973,47.2520975 96.0605087,61.2190096 C91.730766,75.1626434 85.1197609,87.1509096 74.5747424,92.9937345 C64.0297238,98.8598376 49.5506916,98.5804993 35.0251031,93.4825764 C20.5227927,88.3613753 5.9972042,78.4215896 1.52779235,64.5710685 C-2.91834132,50.7205474 2.71497987,32.9360127 13.5626149,20.9943029 C24.4335281,9.05259309 40.495477,2.95370817 56.5108694,3 C72.5262619,3.04682091 88.495098,9.23881859 95.4552759,20.2959573 Z" id="Path"></path>
                <path d="M85.1774587,26.7035264 C95.9889693,40.4554059 102.797054,57.1702726 98.8841018,70.3114601 C94.9711492,83.4526476 80.337159,92.9749194 66.3817156,97.0461995 C52.4262721,101.094861 39.1946117,99.6699133 27.9759732,94.1963034 C16.7799528,88.7226935 7.6195726,79.2004217 3.0733098,66.5568351 C-1.47295299,53.8906303 -1.42771654,38.1031107 6.28509745,25.0750144 C14.0205297,12.0242998 29.4009212,1.75562663 44.4872758,2.00442709 C59.5736305,2.23060931 74.3659482,12.9742652 85.1774587,26.7035264 Z" id="Path"></path>
                <path d="M92.8025837,25.4703067 C100.518951,37.3514682 101.64319,52.298736 98.0149643,65.3296874 C94.3867386,78.3861897 86.0060483,89.5008247 74.8914133,94.764307 C63.8023291,100.027789 49.9793003,99.4145681 36.8461454,94.2788402 C23.7385413,89.1431123 11.3208112,79.4593269 4.80533548,64.5631609 C-1.68458933,49.641444 -2.29781057,29.5073465 7.30932222,17.166269 C16.8909041,4.85074242 36.6672892,0.353786646 53.7097295,2.52561188 C70.7521699,4.69743711 85.0862164,13.5635942 92.8025837,25.4703067 Z" id="Path"></path>
                <path d="M90.2387797,17.6208006 C98.7986232,29.5566638 100.040127,46.1318315 96.6423267,61.9664529 C93.2663071,77.7792936 85.2727636,92.8298072 73.3369004,97.9047271 C61.3792565,103.001428 45.4792927,98.0789733 30.9950792,90.8695377 C16.5108657,83.6383213 3.46418309,74.0983431 1.32966741,62.6634376 C-0.826629047,51.2067514 7.9292414,37.855138 17.8394928,25.614344 C27.7497441,13.37355 38.8143764,2.22179466 52.2966745,0.305086699 C65.7789725,-1.61162126 81.6571554,5.66315667 90.2387797,17.6208006 Z" id="Path"></path>
                <path d="M88.921862,18.210772 C98.5255568,30.1893501 101.567074,47.4801672 97.2756182,61.8127963 C92.9841624,76.1454254 81.3597336,87.5198665 67.5479122,94.0612118 C53.7152586,100.602557 37.7160447,102.289974 25.5083112,96.3319335 C13.2797454,90.3530606 4.82182761,76.7495624 1.53032267,62.062784 C-1.76118226,47.3551733 0.113725612,31.5434502 8.55081106,19.8356922 C16.9670642,8.12793408 31.9663272,0.482476409 47.5488949,0.0241655949 C63.1314626,-0.454977529 79.2973349,6.21136159 88.921862,18.210772 Z" id="Path"></path>
                <path d="M85.4304273,14.42892 C95.2962656,25.3909626 99.0577508,42.6723004 95.4252308,58.1696194 C91.7927108,73.6669385 80.7876798,87.3587446 66.4080592,94.451831 C52.0069444,101.566412 34.2312401,102.082272 22.8178192,94.5807962 C11.4258926,87.07932 6.39624956,71.5605067 4.65521926,57.2238746 C2.91418897,42.8872424 4.46177145,29.7112971 11.4903752,19.4155747 C18.518979,9.09835814 31.0071099,1.66136454 45.2577653,0.24274726 C59.5084206,-1.15437582 75.5430947,3.46687744 85.4304273,14.42892 Z" id="Path"></path>
                <path d="M83.8871121,22.1010319 C93.4207581,33.7430804 101.006424,47.2414397 98.8292688,59.1814146 C96.6291967,71.098472 84.6663044,81.4800625 70.2283309,89.5011589 C55.7903574,97.4993378 38.8773028,103.15994 25.4018609,98.0493559 C11.9035015,92.961689 1.84275493,77.125753 0.238535656,61.7481654 C-1.38860104,46.3705778 5.48662443,31.4513385 15.4327839,19.7176204 C25.3789434,7.96098487 38.396037,-0.587212126 50.6339383,0.0315581656 C62.8718396,0.650328457 74.3534662,10.436066 83.8871121,22.1010319 Z" id="Path"></path>
                <path d="M94.6223685,13.0287887 C102.419149,22.293198 100.607544,39.7212947 96.296383,55.7964207 C92.008154,71.848615 85.220369,86.5478387 73.6398573,92.6247408 C62.0822774,98.6787112 45.7319709,96.1332918 30.7117034,89.4372336 C15.6914359,82.7411754 2.02413898,71.8944784 0.212534189,59.5801522 C-1.5990706,47.265826 8.46794841,33.5068023 19.0853284,23.6003052 C29.7027083,13.6708765 40.8933809,7.61690603 55.1798339,5.14028176 C69.4433551,2.66365749 86.8485201,3.76437939 94.6223685,13.0287887 Z" id="Path"></path>
                <path d="M90.4445303,22.3606432 C99.257376,34.4336108 101.928573,50.3766585 98.6474177,65.0577236 C95.3662627,79.7598217 86.1327562,93.157871 74.5014826,96.9858851 C62.870209,100.813899 48.8411683,95.0718781 34.7910946,88.5937004 C20.7620539,82.1365557 6.71198012,74.9432545 1.91644598,63.0385513 C-2.85805513,51.1548811 1.6430164,34.538776 11.4864812,22.2344449 C21.3299461,9.93011389 36.5158042,1.91652393 51.5964971,2 C66.656157,2.08478829 81.6316847,10.2876756 90.4445303,22.3606432 Z" id="Path"></path>
                <path d="M85.1072259,22.5111944 C92.2853006,34.3053232 94.2509887,47.4467213 91.4901908,59.4838003 C88.7073064,71.4987929 81.1979361,82.4315527 69.4258937,90.3163916 C57.6759377,98.1791441 41.6633097,103.038148 29.8470946,97.8478483 C18.0308795,92.6575482 10.4110772,77.4621164 8.48956183,62.752585 C6.56804648,48.0430537 10.3669044,33.8415091 18.7597301,21.7602574 C27.1525558,9.70109205 40.1614357,-0.259866876 52.8611061,0.00516972562 C65.5386902,0.248119943 77.9291513,10.6949793 85.1072259,22.5111944 Z" id="Path"></path>
                <path d="M83.3947,22.3343014 C92.8676521,34.5433732 98.3168988,49.6725055 95.2588827,62.8012813 C92.2238592,75.9530498 80.6815729,87.0814693 66.9549894,93.7263313 C53.2284059,100.348201 37.2945326,102.486513 26.3040687,96.4164657 C15.2906123,90.3464188 9.19757268,76.0680128 5.67970454,61.0768362 C2.1618364,46.0856595 1.19614711,30.3817122 8.48480201,18.6784777 C15.7734569,6.97524316 31.2934634,-0.72727858 45.824788,0.0544698947 C60.3561126,0.859210972 73.8987553,10.1252297 83.3947,22.3343014 Z" id="Path"></path>
                <path d="M88.5825193,22.3634614 C97.6392241,34.5835128 101.777575,49.8369102 99.2858977,64.700306 C96.7942205,79.5637019 87.6508487,94.037096 75.6907985,98.0237795 C63.7307482,102.010463 48.9540194,95.5104356 34.3289579,88.5120728 C19.7038964,81.5353768 5.252169,74.0603454 1.22215206,62.46863 C-2.80786488,50.8769146 3.58382866,35.1685152 13.7238713,22.7101295 C23.8639139,10.2517438 37.7523056,1.021705 51.6623641,1 C65.5940894,0.978371488 79.5258146,10.1650768 88.5825193,22.3634614 Z" id="Path"></path>
                <path d="M86.0700747,10.7047024 C95.6584271,20.7020366 97.7942212,38.6745169 93.9770572,55.238282 C90.1598933,71.8020471 80.3443288,86.9343756 66.0754063,94.4550975 C51.7837627,101.998541 33.0160398,101.930377 21.5191055,93.7280187 C10.0448924,85.5029392 5.81874657,69.1663862 4.45547372,54.6248092 C3.09220087,40.0832322 4.61452222,27.3593523 11.4081652,17.9982121 C18.2018082,8.63707188 30.2667729,2.68411378 44.8310712,0.684646943 C59.4180906,-1.29209868 76.4590012,0.707368157 86.0700747,10.7047024 Z" id="Path"></path>
                <path d="M88.0721245,21.7135085 C96.8022833,34.3683167 98.9564783,50.6192754 94.4666823,63.3196045 C89.9542107,75.9971731 78.7977481,85.1241121 65.8952538,91.8156833 C52.9927594,98.4844941 38.3669091,102.717937 27.2331223,97.9837643 C16.0766597,93.2723519 8.41226058,79.5705632 4.96554856,64.7762731 C1.4961608,50.0047434 2.24446012,34.1407122 10.2489953,21.6452272 C18.2308547,9.14974213 33.4916257,0.022803133 48.7523966,0 C64.0358433,-0.0227177597 79.3419658,9.05870034 88.0721245,21.7135085 Z" id="Path"></path>
                <path d="M81.9253799,21.0249248 C91.3367064,32.3633324 97.364437,46.9060726 95.5269875,61.5608525 C93.689538,76.1932244 83.9869086,90.9376359 70.676604,96.8533268 C57.3438914,102.791426 40.4035037,99.8783961 29.2667674,91.8563606 C18.130031,83.8343252 12.796946,70.680876 8.56184907,56.1381358 C4.34916007,41.5729876 1.21205123,25.6409563 7.77757186,14.9523784 C14.3206846,4.26380044 30.5664267,-1.15891626 45.0867591,0.207966873 C59.6294993,1.55244209 72.4916455,9.68651713 81.9253799,21.0249248 Z" id="Path"></path>
                <path d="M86.9901129,22.5434054 C94.4174059,35.3587776 93.8581218,51.0419254 90.2563321,65.6944663 C86.6545424,80.3470073 80.0102471,93.9913458 69.6746766,98.3602227 C59.3391062,102.706695 45.3346319,97.8001103 34.5516341,90.8099073 C23.7686364,83.8421088 16.2294865,74.790692 11.7552135,62.8266907 C7.30331197,50.8850939 5.91628736,36.053317 12.6053254,23.3947763 C19.2943634,10.7362356 34.0594641,0.273335536 49.1153925,0.00448157424 C64.1936923,-0.241967891 79.5851912,9.70562871 86.9901129,22.5434054 Z" id="Path"></path>
                <path d="M82.9493812,23.3611401 C92.8806802,32.8515146 101.132267,46.6251555 99.8724827,60.6717497 C98.6126985,74.7393403 87.8415433,89.0588877 75.0127406,92.817244 C62.1839378,96.5756003 47.2974875,89.751769 33.4188646,82.4660169 C19.5192452,75.1592684 6.62745325,67.3905989 2.00824441,55.3806559 C-2.63196084,43.3497165 1.02141342,27.0775036 10.3648131,17.7341038 C19.7292093,8.39070414 34.7626344,5.9761177 48.0953508,7.36188035 C61.4070709,8.7266466 73.0180822,13.8917619 82.9493812,23.3611401 Z" id="Path"></path>
                <path d="M88.7010602,17.3235229 C97.5645096,28.3635663 100.661107,44.0709451 97.2728012,58.0505123 C93.8844952,72.0300794 84.0337247,84.304274 70.4805007,92.0233287 C56.9272767,99.7199443 39.6940383,102.906298 26.7915485,96.7804206 C13.9114979,90.676982 5.33975692,75.3061898 2.8041372,59.800763 C0.268517476,44.3177754 3.76901904,28.700153 12.7446641,17.6376705 C21.7203091,6.57518799 36.1486585,0.0678453435 50.6892034,0 C65.2297484,-0.066789332 79.8376107,6.30591864 88.7010602,17.3235229 Z" id="Path"></path>
                <path d="M87.9769756,19.5512171 C96.5240365,31.3922336 98.6123612,47.2376665 95.2968766,61.8774686 C91.9598629,76.5172707 83.240569,89.9514421 70.8397954,96.0441832 C58.4174927,102.158454 42.3137104,100.909765 29.6761165,94.1926788 C17.0385226,87.454064 7.86711718,75.2255235 4.48704522,61.3822988 C1.08544414,47.5390741 3.49670567,32.0811654 11.9576501,20.240149 C20.4185946,8.39913259 34.9507511,0.196537576 49.6981988,0.00277548863 C64.4671757,-0.169457478 79.4514437,7.6886716 87.9769756,19.5512171 Z" id="Path"></path>
                <path d="M85.4383305,21.747897 C94.9631718,31.7696865 101.79621,45.8291805 99.5806492,58.7498348 C97.3650883,71.6704891 86.080222,83.4315975 72.5383824,89.581332 C59.017249,95.7517727 43.2184361,96.3108395 29.4281224,90.51311 C15.6171025,84.7360867 3.79387555,72.5815609 0.791479925,58.6670101 C-2.2109157,44.7317532 3.60751996,29.015765 13.5257786,18.9111508 C23.4647435,8.82724268 37.4828251,4.33400233 50.6105412,5.07942469 C63.7175511,5.80414088 75.9134892,11.7468136 85.4383305,21.747897 Z" id="Path"></path>
                <path d="M88.4871542,21.9322504 C95.981891,34.0375135 96.6976805,48.8375135 93.5187331,62.7322504 C90.3397858,76.6480399 83.2871542,89.6585662 72.0450489,95.7217241 C60.8029436,101.784882 45.3924173,100.900671 32.6555752,94.6901451 C19.8976805,88.4796188 9.81346996,76.9427767 5.87662786,63.0480399 C1.93978575,49.1322504 4.15031207,32.8796188 12.9503121,20.4796188 C21.7503121,8.0796188 37.0976805,-0.42564436 51.9187331,0.0164609031 C66.7397858,0.437513535 80.9924173,9.84803985 88.4871542,21.9322504 Z" id="Path"></path>
                <path d="M88.8757806,19.0903334 C98.5024006,29.7392494 102.485095,46.3089626 98.4172093,59.8117881 C94.3493234,73.3146135 82.2734527,83.771849 68.6428402,89.8843268 C55.0122278,95.9968046 39.8481714,97.7858225 27.2185571,92.4400666 C14.5676449,87.0943108 4.45117471,74.6137813 1.19260642,60.4933187 C-2.0872597,46.3728561 1.5120739,30.6337583 10.5849503,20.1126293 C19.6365289,9.61279818 34.1829481,4.30963802 49.0914305,4.01146838 C63.9999128,3.73459656 79.2491605,8.46271525 88.8757806,19.0903334 Z" id="Path"></path>
                <path d="M86.3545454,21.2443324 C94.9964091,32.7241416 99.4773756,46.8498547 97.5782993,61.3169748 C95.700561,75.762757 87.4427801,90.5499461 74.93875,96.6099198 C62.43472,102.691231 45.6631028,100.066665 31.5587276,92.897119 C17.4543524,85.7275728 5.99588121,74.0343843 2.32575634,59.9726849 C-1.34436852,45.9323235 2.79519092,29.5234513 12.3972618,17.8302628 C21.9993326,6.15841222 37.0852529,-0.819092611 51.0189246,0.07710067 C64.9312584,0.994631886 77.7340195,9.78586121 86.3545454,21.2443324 Z" id="Path"></path>
                <path d="M88.377608,15.8271065 C98.4762959,26.3092889 102.417767,43.8861193 98.5189064,59.1406774 C94.5987406,74.3952356 82.816938,87.3062164 68.521116,93.7190963 C54.225294,100.110671 37.4154527,99.9828395 25.6123448,92.9308021 C13.809237,85.90007 7.01286257,71.9664373 3.07139153,56.7757948 C-0.870079508,41.5851524 -1.97795245,25.1588055 5.60671614,15.2518648 C13.1913847,5.34492407 29.4472896,2 45.7244997,2 C62.0017099,2 78.2576148,5.34492407 88.377608,15.8271065 Z" id="Path"></path>
            </g>
        </g>
    </g>
</svg>